<?xml version="1.0" standalone="no"?>
<!DOCTYPE svg PUBLIC "-//W3C//DTD SVG 20010904//EN"
 "http://www.w3.org/TR/2001/REC-SVG-20010904/DTD/svg10.dtd">
<svg version="1.0" xmlns="http://www.w3.org/2000/svg"
 width="260.000000pt" height="260.000000pt" viewBox="0 0 260.000000 260.000000"
 preserveAspectRatio="xMidYMid meet">
<metadata>
Created by potrace 1.14, written by Peter Selinger 2001-2017
</metadata>
<g transform="translate(0.000000,260.000000) scale(0.100000,-0.100000)"
fill="#000000" stroke="none">
<path d="M1509 2386 c-26 -15 -48 -56 -47 -86 1 -17 -68 -159 -85 -176 -7 -7
-77 -40 -157 -74 -217 -93 -351 -162 -458 -236 -177 -122 -327 -253 -457 -399
-78 -87 -146 -215 -169 -314 -14 -66 53 -131 137 -131 41 0 53 5 78 30 34 34
33 55 -7 103 -13 16 -24 33 -24 38 0 19 63 134 102 187 99 134 261 280 449
405 102 68 287 168 361 196 l28 10 -27 -42 c-14 -23 -64 -100 -110 -170 -440
-673 -630 -1055 -638 -1284 -3 -74 -1 -86 23 -122 62 -95 209 -80 177 18 -3
11 -24 28 -46 38 -49 21 -56 43 -41 140 22 138 98 325 235 578 207 382 531
875 593 903 85 39 386 94 532 97 177 4 251 -16 325 -84 120 -110 85 -317 -100
-599 -309 -470 -879 -949 -1163 -979 -63 -6 -115 14 -126 49 -20 64 169 259
391 403 139 90 275 148 449 194 125 33 156 50 156 86 0 77 -125 78 -328 4
-240 -87 -528 -289 -657 -461 -65 -87 -83 -134 -87 -227 -5 -124 162 -169 337
-92 229 100 447 262 695 517 377 387 583 733 582 981 -1 293 -338 400 -872
276 l-25 -6 23 25 c13 14 38 34 57 44 64 34 75 103 25 149 -26 23 -98 29 -131
11z"/>
</g>
</svg>
